<?xml version="1.0" encoding="UTF-8"?>
<svg id="Lag_2" data-name="Lag 2" xmlns="http://www.w3.org/2000/svg" viewBox="0 0 497.03 72.57">
  <defs>
    <style>
      .cls-1, .cls-2, .cls-3 {
        stroke-width: 0px;
      }

      .cls-1, .cls-4 {
        fill: #f18a4d;
      }

      .cls-2 {
        fill: #fff;
      }

      .cls-4 {
        stroke: #f18a4d;
        stroke-linecap: round;
        stroke-linejoin: bevel;
      }

      .cls-4, .cls-5 {
        stroke-width: .5px;
      }

      .cls-5 {
        stroke: #1e1e1c;
        stroke-miterlimit: 10;
      }

      .cls-5, .cls-3 {
        fill: #1e1e1c;
      }
    </style>
  </defs>
  <g id="_1.2" data-name="1.2">
    <g>
      <g>
        <path class="cls-4" d="M483.81.25c9.99,0,16.19,10.85,11.13,19.46l-22.15,37.64c-5.45,9.27-13.81,15.19-26.16,14.96H157.09c10.49-.19,18.48-5.97,25.63-14.94l22.15-37.64c4.15-9.04-1.14-19.46-11.13-19.46l290.08-.02Z"/>
        <path class="cls-5" d="M156.32,72.32H13.04c-9.88,0-16.02-10.73-11.01-19.25L26.27,11.87C30.51,4.68,38.24.26,46.59.26h146.91c9.99,0,15.28,10.41,11.13,19.46l-22.15,37.64c-7.27,9.13-15.41,14.96-26.16,14.96Z"/>
      </g>
      <g>
        <g>
          <path class="cls-3" d="M248.95,57.25l-.15-23.11-10.15,18.83h-4.98s-10.15-18.17-10.15-18.17l.04,22.49-10.35.02-.08-43.6h9.22s13.95,25.13,13.95,25.13l13.53-25.18h9.22s.19,43.59.19,43.59l-10.29.02Z"/>
          <path class="cls-3" d="M289.95,38.44l.03,18.75-9.23.02v-4.36c-1.41,3.24-4.22,4.93-8.34,4.93-6.78.01-10.54-4.53-10.55-10.38,0-6.23,3.79-10.1,12.55-10.11h5.63c-.16-3.43-2.09-5.36-6.01-5.36-2.71,0-5.73,1.13-7.66,2.94l-3.35-8.03c3.23-2.56,8.02-3.94,12.46-3.94,9.18-.01,14.45,4.83,14.47,15.55ZM280.05,46.36v-2.93s-4.28,0-4.28,0c-3.18,0-4.33,1.38-4.32,3.43,0,1.99,1.36,3.42,3.71,3.42,2.19,0,4.12-1.25,4.9-3.93Z"/>
          <path class="cls-3" d="M291.99,54.25l2.96-8.1c2.61,1.93,6.42,3.1,9.86,3.1,3.34,0,4.43-.88,4.43-2.31,0-4.55-16.69.65-16.71-12.87-.01-6.35,4.88-11.22,13.75-11.23,3.96,0,8.35.98,11.17,2.85l-2.96,8.04c-2.82-1.86-5.64-2.48-8.14-2.48-3.34,0-4.54,1.13-4.53,2.37,0,4.67,16.64-.4,16.66,12.99.01,6.23-4.78,11.09-13.96,11.11-4.8,0-9.76-1.42-12.52-3.47Z"/>
          <path class="cls-3" d="M333.57,45.27l-2.92,3.56v8.28s-9.9.02-9.9.02l-.07-46.22,9.91-.02.04,24.23,10.1-11.79,11.73-.02-11.71,14.47,12.76,19.29-12,.02-7.95-11.82Z"/>
          <path class="cls-3" d="M354.26,13.29c0-3.55,2.39-6.29,6.04-6.3,3.65,0,6.05,2.54,6.06,6.09,0,3.74-2.39,6.48-6.04,6.49-3.65,0-6.05-2.73-6.06-6.28ZM355.38,23.31l9.91-.02.05,33.76-9.91.02-.05-33.76Z"/>
          <path class="cls-3" d="M402.2,37.69l.03,19.31-10.69.02-.03-17.38c0-4.86-1.93-6.91-5.02-6.91-3.43,0-6.07,2.38-6.07,7.98l.03,16.32-10.69.02-.06-33.76,10.19-.02v3.67c2.42-2.81,5.85-4.24,9.68-4.25,7.15-.01,12.62,4.53,12.63,14.99Z"/>
          <path class="cls-3" d="M434.48,43.05l-20.55.03c.84,3.42,3.29,5.41,6.95,5.41,2.76,0,4.59-.94,6.51-2.94l5.23,6.47c-2.71,3.62-6.67,5.49-12.04,5.5-10.07.02-16.6-7.39-16.61-17.48-.02-10.15,6.6-17.39,15.51-17.4,8.34-.01,15.14,6.33,15.15,17.48,0,.87-.1,1.99-.15,2.93ZM413.76,36.86l11.58-.02c-.53-3.55-2.72-5.79-5.8-5.78s-5.21,2.25-5.78,5.8Z"/>
          <path class="cls-3" d="M456.12,22.58l.02,10.65c-.89-.12-1.51-.18-2.24-.18-4.02,0-6.78,2.44-6.77,8.36l.03,15.51-9.91.02-.05-33.76,9.44-.02v4.05c2.04-3.06,5.32-4.62,9.49-4.62Z"/>
        </g>
        <g>
          <path class="cls-2" d="M89.18,22.04l-2.71,12.58h21.39l-1.39,6.5h-21.33l-3.41,15.83h-8.2l8.83-41.36h34.74l-1.39,6.44h-26.54Z"/>
          <path class="cls-2" d="M136.54,34.87l15.68,22.08h-9.15l-12.56-17.43-8.39,6.85-2.27,10.58h-8.14l8.83-41.36h8.14l-4.48,20.92,25.68-20.92h10.35l-23.6,19.2-.1.07Z"/>
          <polyline class="cls-2" points="53.89 23.16 58.37 41.36 46.42 41.36 42.36 47.38 59.88 47.38 62.22 56.95 70.36 56.95 59.38 15.6 51.24 15.6 22.53 56.95 31.3 56.95 37.67 47.38"/>
          <polygon class="cls-1" points="183.02 15.62 171.85 15.62 146.38 36.38 150.45 42.12 161.16 56.98 170.11 56.98 156.14 37.43 159.43 34.78 183.02 15.62"/>
        </g>
      </g>
    </g>
    <g>
      <g>
        <path class="cls-4" d="M483.85.25c9.99,0,16.19,10.85,11.13,19.46l-22.15,37.64c-5.45,9.27-13.81,15.19-26.16,14.96H157.13c10.49-.19,18.48-5.97,25.63-14.94l22.15-37.64c4.15-9.04-1.14-19.46-11.13-19.46l290.08-.02Z"/>
        <path class="cls-5" d="M156.35,72.32H13.08c-9.88,0-16.02-10.73-11.01-19.25L26.31,11.87C30.54,4.67,38.27.25,46.62.25h146.91c9.99,0,15.28,10.41,11.13,19.46l-22.15,37.64c-7.27,9.13-15.41,14.96-26.16,14.96Z"/>
      </g>
      <g>
        <g>
          <path class="cls-3" d="M248.98,57.25l-.15-23.11-10.15,18.83h-4.98s-10.15-18.17-10.15-18.17l.04,22.49-10.35.02-.08-43.6h9.22s13.95,25.13,13.95,25.13l13.53-25.18h9.22s.19,43.59.19,43.59l-10.29.02Z"/>
          <path class="cls-3" d="M289.99,38.43l.03,18.75-9.23.02v-4.36c-1.41,3.24-4.22,4.93-8.34,4.93-6.78.01-10.54-4.53-10.55-10.38,0-6.23,3.79-10.1,12.55-10.11h5.63c-.16-3.43-2.09-5.36-6.01-5.36-2.71,0-5.73,1.13-7.66,2.94l-3.35-8.03c3.23-2.56,8.02-3.94,12.46-3.94,9.18-.01,14.45,4.83,14.47,15.55ZM280.09,46.36v-2.93s-4.28,0-4.28,0c-3.18,0-4.33,1.38-4.32,3.43,0,1.99,1.36,3.42,3.71,3.42,2.19,0,4.12-1.25,4.9-3.93Z"/>
          <path class="cls-3" d="M292.02,54.25l2.96-8.1c2.61,1.93,6.42,3.1,9.86,3.1,3.34,0,4.43-.88,4.43-2.31,0-4.55-16.69.65-16.71-12.87-.01-6.35,4.88-11.22,13.75-11.23,3.96,0,8.35.98,11.17,2.85l-2.96,8.04c-2.82-1.86-5.64-2.48-8.14-2.48-3.34,0-4.54,1.13-4.53,2.37,0,4.67,16.64-.4,16.66,12.99.01,6.23-4.78,11.09-13.96,11.11-4.8,0-9.76-1.42-12.52-3.47Z"/>
          <path class="cls-3" d="M333.61,45.27l-2.92,3.56v8.28s-9.9.02-9.9.02l-.07-46.22,9.91-.02.04,24.23,10.1-11.79,11.73-.02-11.71,14.47,12.76,19.29-12,.02-7.95-11.82Z"/>
          <path class="cls-3" d="M354.3,13.28c0-3.55,2.39-6.29,6.04-6.3,3.65,0,6.05,2.54,6.06,6.09,0,3.74-2.39,6.48-6.04,6.49-3.65,0-6.05-2.73-6.06-6.28ZM355.41,23.31l9.91-.02.05,33.76-9.91.02-.05-33.76Z"/>
          <path class="cls-3" d="M402.23,37.69l.03,19.31-10.69.02-.03-17.38c0-4.86-1.93-6.91-5.02-6.91-3.43,0-6.07,2.38-6.07,7.98l.03,16.32-10.69.02-.06-33.76,10.19-.02v3.67c2.42-2.81,5.85-4.24,9.68-4.25,7.15-.01,12.62,4.53,12.63,14.99Z"/>
          <path class="cls-3" d="M434.51,43.05l-20.55.03c.84,3.42,3.29,5.41,6.95,5.41,2.76,0,4.59-.94,6.51-2.94l5.23,6.47c-2.71,3.62-6.67,5.49-12.04,5.5-10.07.02-16.6-7.39-16.61-17.48-.02-10.15,6.6-17.39,15.51-17.4,8.34-.01,15.14,6.33,15.15,17.48,0,.87-.1,1.99-.15,2.93ZM413.8,36.85l11.58-.02c-.53-3.55-2.72-5.79-5.8-5.78s-5.21,2.25-5.78,5.8Z"/>
          <path class="cls-3" d="M456.15,22.58l.02,10.65c-.89-.12-1.51-.18-2.24-.18-4.02,0-6.78,2.44-6.77,8.36l.03,15.51-9.91.02-.05-33.76,9.44-.02v4.05c2.04-3.06,5.32-4.62,9.49-4.62Z"/>
        </g>
        <g>
          <path class="cls-2" d="M89.21,22.03l-2.71,12.58h21.39l-1.39,6.5h-21.33l-3.41,15.83h-8.2l8.83-41.36h34.74l-1.39,6.44h-26.54Z"/>
          <path class="cls-2" d="M136.58,34.87l15.68,22.08h-9.15l-12.56-17.43-8.39,6.85-2.27,10.58h-8.14l8.83-41.36h8.14l-4.48,20.92,25.68-20.92h10.35l-23.6,19.2-.1.07Z"/>
          <polyline class="cls-2" points="53.92 23.15 58.4 41.35 46.46 41.35 42.4 47.38 59.92 47.38 62.25 56.95 70.39 56.95 59.41 15.59 51.27 15.59 22.56 56.95 31.34 56.95 37.71 47.38"/>
          <polygon class="cls-1" points="183.06 15.62 171.89 15.62 146.42 36.38 150.49 42.11 161.2 56.98 170.15 56.98 156.18 37.43 159.47 34.78 183.06 15.62"/>
        </g>
      </g>
    </g>
  </g>
</svg>