<?xml version="1.0" encoding="UTF-8"?>
<svg id="Lag_2" data-name="Lag 2" xmlns="http://www.w3.org/2000/svg" viewBox="0 0 524.16 114.18">
  <defs>
    <style>
      .cls-1, .cls-2, .cls-3 {
        stroke-width: 0px;
      }

      .cls-1, .cls-4 {
        fill: #f18a4d;
      }

      .cls-2, .cls-5 {
        fill: #fff;
      }

      .cls-4 {
        stroke: #f18a4d;
      }

      .cls-4, .cls-6, .cls-5, .cls-7 {
        stroke-miterlimit: 10;
      }

      .cls-3, .cls-7 {
        fill: #1e1e1c;
      }

      .cls-6 {
        fill: none;
        stroke-width: 1.2px;
      }

      .cls-6, .cls-7 {
        stroke: #1e1e1c;
      }

      .cls-5 {
        stroke: #fff;
      }
    </style>
  </defs>
  <g id="_2.3" data-name="2.3">
    <path class="cls-5" d="M461.13,113.68H19.46c-10.35,0-24-17.24-17.07-30.58L43.22,14.05C47.57,5.65,56.39.5,64.96.5h445.79c10.24,0,16.2,17.36,11.01,27.39l-33.8,62.51c-7.64,11.85-15.13,23.03-26.83,23.28Z"/>
    <path class="cls-4" d="M457.35,108.62H23.48c-9.75-.31-20.97-13.59-14.21-25.72L48.61,17.98c4.24-7.64,11.96-12.32,20.32-12.32h436.81c9.99,0,15.9,10.9,11.13,20.64l-33.35,61.15c-6.3,10.6-14.76,20.95-26.16,21.17Z"/>
    <path class="cls-7" d="M178.68,77.71H35.4c-9.88,0-16.02-10.73-11.01-19.25l24.24-41.2c4.24-7.2,11.96-11.62,20.32-11.62h146.91c9.99,0,15.28,10.41,11.13,19.46l-22.15,37.64c-7.27,9.13-15.41,14.96-26.16,14.96Z"/>
    <g>
      <path class="cls-3" d="M24.8,88.9c-1.49,0-2.67.5-3.53,1.49-.86.99-1.29,2.35-1.29,4.08s.42,3.15,1.25,4.11c.83.97,2.02,1.45,3.56,1.45.95,0,2.03-.17,3.24-.51v1.38c-.94.35-2.1.53-3.48.53-2,0-3.54-.61-4.62-1.82-1.09-1.21-1.63-2.93-1.63-5.17,0-1.4.26-2.62.78-3.67.52-1.05,1.28-1.86,2.26-2.43.99-.57,2.15-.85,3.48-.85,1.42,0,2.67.26,3.73.78l-.67,1.35c-1.03-.48-2.05-.72-3.08-.72Z"/>
      <path class="cls-3" d="M38.72,87.69h1.7l-4.89,13.56h-1.56l-4.86-13.56h1.67l3.12,8.78c.36,1.01.64,1.99.85,2.94.22-1,.51-2,.87-3l3.1-8.72Z"/>
      <path class="cls-3" d="M43.86,95.61v5.64h-1.58v-13.56h3.72c1.66,0,2.89.32,3.69.96.79.64,1.19,1.6,1.19,2.88,0,1.79-.91,3.01-2.73,3.64l3.68,6.1h-1.86l-3.28-5.64h-2.83ZM43.86,94.25h2.16c1.11,0,1.93-.22,2.45-.66s.78-1.11.78-1.99-.26-1.54-.79-1.94c-.53-.4-1.38-.59-2.55-.59h-2.05v5.19Z"/>
      <path class="cls-3" d="M53.58,92.07c0-.83.36-1.25,1.09-1.25s1.14.42,1.14,1.25c0,.4-.1.71-.31.93-.2.22-.48.33-.83.33-.32,0-.58-.1-.78-.29-.21-.2-.31-.52-.31-.96ZM53.58,100.27c0-.41.09-.73.28-.94.19-.21.46-.32.81-.32s.64.11.84.32c.2.21.3.53.3.94s-.1.71-.31.93-.48.33-.83.33c-.32,0-.58-.1-.78-.29-.21-.19-.31-.51-.31-.96Z"/>
      <path class="cls-3" d="M72.64,98.13h-2.01v3.12h-1.48v-3.12h-6.6v-1.35l6.44-9.17h1.63v9.12h2.01v1.4ZM69.15,96.73v-4.51c0-.88.03-1.88.09-3h-.07c-.3.59-.58,1.09-.83,1.47l-4.24,6.03h5.06Z"/>
      <path class="cls-3" d="M83.51,98.13h-2.01v3.12h-1.48v-3.12h-6.6v-1.35l6.44-9.17h1.63v9.12h2.01v1.4ZM80.02,96.73v-4.51c0-.88.03-1.88.09-3h-.07c-.3.59-.58,1.09-.83,1.47l-4.24,6.03h5.06Z"/>
      <path class="cls-3" d="M93.22,90.88c0,.87-.24,1.57-.73,2.12-.49.55-1.17.92-2.06,1.1v.07c1.09.14,1.9.48,2.42,1.04.53.56.79,1.29.79,2.19,0,1.29-.45,2.29-1.35,2.98-.9.7-2.17,1.04-3.82,1.04-.72,0-1.37-.05-1.97-.16-.6-.11-1.18-.3-1.74-.57v-1.47c.59.29,1.21.51,1.88.66.66.15,1.29.23,1.89.23,2.34,0,3.52-.92,3.52-2.75,0-1.65-1.29-2.47-3.88-2.47h-1.34v-1.33h1.35c1.06,0,1.9-.23,2.51-.7.62-.47.93-1.11.93-1.94,0-.66-.23-1.18-.68-1.56-.46-.38-1.07-.57-1.85-.57-.59,0-1.15.08-1.68.24-.53.16-1.13.46-1.8.89l-.78-1.04c.56-.44,1.2-.78,1.92-1.04.73-.25,1.49-.38,2.3-.38,1.32,0,2.34.3,3.07.9.73.6,1.09,1.43,1.09,2.48Z"/>
      <path class="cls-3" d="M104.67,94.45c0,2.34-.37,4.09-1.11,5.25-.74,1.16-1.87,1.73-3.39,1.73s-2.57-.59-3.33-1.78-1.14-2.92-1.14-5.21.37-4.12,1.1-5.26c.74-1.14,1.86-1.72,3.37-1.72s2.59.6,3.35,1.79c.76,1.19,1.15,2.92,1.15,5.19ZM97.25,94.45c0,1.97.23,3.41.7,4.31.46.9,1.2,1.35,2.22,1.35s1.77-.46,2.23-1.37c.46-.91.69-2.34.69-4.29s-.23-3.38-.69-4.28c-.46-.91-1.21-1.36-2.23-1.36s-1.75.45-2.22,1.34c-.46.89-.7,2.33-.7,4.3Z"/>
      <path class="cls-3" d="M114.95,90.88c0,.87-.24,1.57-.73,2.12-.49.55-1.17.92-2.06,1.1v.07c1.09.14,1.9.48,2.42,1.04.53.56.79,1.29.79,2.19,0,1.29-.45,2.29-1.35,2.98-.9.7-2.17,1.04-3.82,1.04-.72,0-1.37-.05-1.97-.16-.6-.11-1.18-.3-1.74-.57v-1.47c.59.29,1.21.51,1.88.66.66.15,1.29.23,1.89.23,2.34,0,3.52-.92,3.52-2.75,0-1.65-1.29-2.47-3.88-2.47h-1.34v-1.33h1.35c1.06,0,1.9-.23,2.51-.7.62-.47.93-1.11.93-1.94,0-.66-.23-1.18-.68-1.56-.46-.38-1.07-.57-1.85-.57-.59,0-1.15.08-1.68.24-.53.16-1.13.46-1.8.89l-.78-1.04c.56-.44,1.2-.78,1.92-1.04.73-.25,1.49-.38,2.3-.38,1.32,0,2.34.3,3.07.9.73.6,1.09,1.43,1.09,2.48Z"/>
      <path class="cls-3" d="M117.56,95.45c0-2.67.52-4.66,1.55-5.98,1.04-1.32,2.57-1.98,4.6-1.98.7,0,1.25.06,1.65.18v1.33c-.48-.15-1.02-.23-1.63-.23-1.45,0-2.56.45-3.33,1.36-.77.91-1.19,2.33-1.26,4.27h.11c.68-1.06,1.76-1.6,3.23-1.6,1.22,0,2.18.37,2.88,1.1.7.74,1.05,1.73,1.05,3,0,1.41-.39,2.52-1.15,3.33-.77.81-1.81,1.21-3.12,1.21-1.4,0-2.52-.53-3.34-1.58-.82-1.05-1.23-2.52-1.23-4.4ZM122.12,100.13c.88,0,1.56-.28,2.05-.83.49-.55.73-1.35.73-2.4,0-.9-.23-1.6-.68-2.12-.45-.51-1.13-.77-2.02-.77-.56,0-1.07.11-1.53.34-.46.23-.83.54-1.11.95-.27.4-.41.82-.41,1.25,0,.64.12,1.23.37,1.78.25.55.6.99,1.05,1.31.45.32.97.48,1.55.48Z"/>
      <path class="cls-3" d="M133.97,101.25h-1.5v-9.67c0-.8.02-1.56.07-2.28-.13.13-.28.27-.44.41-.16.14-.9.75-2.21,1.81l-.82-1.06,3.59-2.77h1.3v13.56Z"/>
      <path class="cls-3" d="M148.05,101.25h-8.92v-1.33l3.57-3.59c1.09-1.1,1.81-1.89,2.15-2.36.35-.47.61-.93.78-1.37.17-.45.26-.92.26-1.44,0-.72-.22-1.3-.66-1.72-.44-.42-1.05-.64-1.83-.64-.56,0-1.1.09-1.6.28-.5.19-1.07.52-1.68,1.01l-.82-1.05c1.25-1.04,2.61-1.56,4.08-1.56,1.27,0,2.27.33,3,.98s1.09,1.53,1.09,2.63c0,.86-.24,1.71-.72,2.55-.48.84-1.39,1.9-2.71,3.19l-2.97,2.9v.07h6.98v1.43Z"/>
      <path class="cls-3" d="M158.59,86.81h1.31v19.04h-1.31v-19.04Z"/>
      <path class="cls-3" d="M170.51,101.25h-1.58v-12.16h-4.3v-1.4h10.17v1.4h-4.3v12.16Z"/>
      <path class="cls-3" d="M178.15,101.25h-1.54v-14.44h1.54v14.44Z"/>
      <path class="cls-3" d="M186,92.28h-2.59v8.97h-1.54v-8.97h-1.82v-.7l1.82-.56v-.57c0-2.5,1.09-3.75,3.27-3.75.54,0,1.17.11,1.89.32l-.4,1.23c-.59-.19-1.1-.29-1.52-.29-.58,0-1.01.19-1.29.58s-.42,1.01-.42,1.86v.66h2.59v1.2Z"/>
      <path class="cls-3" d="M187.63,100.27c0-.41.09-.73.28-.94.19-.21.46-.32.81-.32s.64.11.84.32c.2.21.3.53.3.94s-.1.71-.31.93-.48.33-.83.33c-.32,0-.58-.1-.78-.29-.21-.19-.31-.51-.31-.96Z"/>
      <path class="cls-3" d="M201.63,87.49c1.24,0,2.22.29,2.94.86s1.09,1.37,1.09,2.38c0,.67-.21,1.28-.62,1.83-.41.55-1.08,1.05-1.99,1.5,1.1.53,1.88,1.08,2.35,1.66s.7,1.25.7,2.01c0,1.12-.39,2.02-1.18,2.69-.79.67-1.86,1.01-3.23,1.01-1.45,0-2.56-.32-3.34-.95-.78-.63-1.17-1.53-1.17-2.7,0-1.55.95-2.76,2.84-3.63-.85-.48-1.47-1-1.84-1.56-.37-.56-.56-1.19-.56-1.88,0-.98.36-1.77,1.09-2.35.73-.58,1.7-.88,2.92-.88ZM198.7,97.83c0,.74.26,1.32.77,1.74.52.41,1.24.62,2.18.62s1.64-.22,2.15-.65c.51-.43.77-1.03.77-1.78,0-.6-.24-1.13-.72-1.6s-1.32-.92-2.52-1.36c-.92.4-1.59.83-2,1.31-.41.48-.62,1.05-.62,1.72ZM201.62,88.74c-.77,0-1.38.19-1.82.56-.44.37-.66.87-.66,1.48,0,.57.18,1.06.55,1.47.36.41,1.04.82,2.02,1.22.88-.37,1.51-.77,1.88-1.2.37-.43.55-.92.55-1.49,0-.62-.22-1.12-.67-1.49-.45-.37-1.07-.55-1.85-.55Z"/>
      <path class="cls-3" d="M213.71,101.25h-1.5v-9.67c0-.8.02-1.56.07-2.28-.13.13-.28.27-.44.41-.16.14-.9.75-2.21,1.81l-.82-1.06,3.59-2.77h1.3v13.56Z"/>
      <path class="cls-3" d="M225.52,101.25l5.62-12.14h-7.39v-1.42h9.03v1.23l-5.55,12.33h-1.71Z"/>
      <path class="cls-3" d="M238.91,92.96c1.43,0,2.55.35,3.37,1.06.82.71,1.23,1.68,1.23,2.91,0,1.4-.45,2.51-1.34,3.3-.89.8-2.13,1.2-3.7,1.2s-2.69-.24-3.5-.73v-1.48c.43.28.97.5,1.61.65.64.16,1.28.24,1.9.24,1.09,0,1.93-.26,2.54-.77.6-.51.9-1.26.9-2.23,0-1.89-1.16-2.84-3.48-2.84-.59,0-1.37.09-2.36.27l-.8-.51.51-6.35h6.74v1.42h-5.43l-.34,4.07c.71-.14,1.42-.21,2.12-.21Z"/>
      <path class="cls-3" d="M256.18,101.25h-1.5v-9.67c0-.8.02-1.56.07-2.28-.13.13-.28.27-.44.41s-.9.75-2.21,1.81l-.82-1.06,3.59-2.77h1.3v13.56Z"/>
      <path class="cls-3" d="M270.25,101.25h-8.92v-1.33l3.57-3.59c1.09-1.1,1.81-1.89,2.15-2.36.35-.47.61-.93.78-1.37.17-.45.26-.92.26-1.44,0-.72-.22-1.3-.66-1.72-.44-.42-1.05-.64-1.83-.64-.56,0-1.1.09-1.6.28-.5.19-1.07.52-1.68,1.01l-.82-1.05c1.25-1.04,2.61-1.56,4.08-1.56,1.27,0,2.27.33,3,.98s1.08,1.53,1.08,2.63c0,.86-.24,1.71-.72,2.55-.48.84-1.39,1.9-2.71,3.19l-2.97,2.9v.07h6.98v1.43Z"/>
      <path class="cls-3" d="M277.29,95.45c0-2.67.52-4.66,1.55-5.98,1.04-1.32,2.57-1.98,4.6-1.98.7,0,1.25.06,1.65.18v1.33c-.48-.15-1.02-.23-1.63-.23-1.45,0-2.56.45-3.33,1.36-.77.91-1.19,2.33-1.26,4.27h.11c.68-1.06,1.76-1.6,3.23-1.6,1.22,0,2.18.37,2.88,1.1s1.05,1.73,1.05,3c0,1.41-.38,2.52-1.15,3.33-.77.81-1.81,1.21-3.12,1.21-1.4,0-2.52-.53-3.34-1.58-.82-1.05-1.23-2.52-1.23-4.4ZM281.85,100.13c.88,0,1.56-.28,2.05-.83.49-.55.73-1.35.73-2.4,0-.9-.23-1.6-.68-2.12-.45-.51-1.13-.77-2.02-.77-.56,0-1.07.11-1.53.34-.46.23-.83.54-1.11.95-.28.4-.41.82-.41,1.25,0,.64.12,1.23.37,1.78.25.55.6.99,1.05,1.31.45.32.97.48,1.55.48Z"/>
      <path class="cls-3" d="M297.55,98.13h-2.01v3.12h-1.48v-3.12h-6.6v-1.35l6.44-9.17h1.63v9.12h2.01v1.4ZM294.07,96.73v-4.51c0-.88.03-1.88.09-3h-.07c-.3.59-.58,1.09-.83,1.47l-4.24,6.03h5.06Z"/>
      <path class="cls-3" d="M307.45,86.81h1.31v19.04h-1.31v-19.04Z"/>
      <path class="cls-3" d="M348.4,101.25l-1.69-4.31h-5.44l-1.67,4.31h-1.6l5.36-13.62h1.33l5.33,13.62h-1.63ZM346.22,95.52l-1.58-4.2c-.2-.53-.41-1.18-.63-1.96-.14.59-.33,1.25-.58,1.96l-1.6,4.2h4.39Z"/>
      <path class="cls-3" d="M353.48,101.25h-1.58v-13.56h7.56v1.4h-5.98v4.96h5.62v1.4h-5.62v5.8Z"/>
      <path class="cls-3" d="M371.5,101.25h-1.86l-4.95-6.58-1.42,1.26v5.32h-1.58v-13.56h1.58v6.73l6.15-6.73h1.86l-5.46,5.89,5.66,7.67Z"/>
      <path class="cls-3" d="M384.31,101.25l-4.6-12.02h-.07c.09.95.13,2.08.13,3.4v8.63h-1.46v-13.56h2.38l4.29,11.19h.07l4.33-11.19h2.36v13.56h-1.58v-8.74c0-1,.04-2.09.13-3.27h-.07l-4.64,12h-1.27Z"/>
      <path class="cls-3" d="M401.48,101.25l-.31-1.45h-.07c-.51.64-1.01,1.07-1.52,1.29s-1.13.34-1.89.34c-1.01,0-1.8-.26-2.37-.78-.57-.52-.86-1.26-.86-2.22,0-2.05,1.64-3.13,4.93-3.23l1.72-.06v-.63c0-.8-.17-1.39-.51-1.77-.34-.38-.89-.57-1.65-.57-.85,0-1.81.26-2.88.78l-.47-1.18c.5-.27,1.05-.49,1.65-.64.6-.15,1.2-.23,1.79-.23,1.21,0,2.11.27,2.7.81.58.54.88,1.4.88,2.59v6.94h-1.14ZM398,100.16c.96,0,1.71-.26,2.26-.79.55-.53.82-1.26.82-2.21v-.92l-1.54.06c-1.22.04-2.11.23-2.65.57-.54.34-.81.86-.81,1.57,0,.56.17.98.51,1.27.34.29.81.44,1.41.44Z"/>
      <path class="cls-3" d="M412.35,98.48c0,.95-.35,1.68-1.06,2.19-.71.51-1.7.77-2.97.77-1.35,0-2.4-.21-3.15-.64v-1.43c.49.25,1.01.44,1.57.58.56.14,1.1.21,1.62.21.8,0,1.42-.13,1.86-.38.43-.26.65-.65.65-1.17,0-.4-.17-.73-.51-1.02-.34-.28-1.01-.61-2.01-1-.95-.35-1.62-.66-2.02-.92-.4-.26-.7-.56-.89-.9-.19-.33-.29-.73-.29-1.2,0-.83.34-1.48,1.01-1.96.67-.48,1.6-.72,2.77-.72,1.09,0,2.17.22,3.21.67l-.55,1.25c-1.02-.42-1.95-.63-2.77-.63-.73,0-1.28.12-1.65.34s-.56.54-.56.95c0,.27.07.5.21.7.14.19.36.37.67.55.31.17.9.42,1.78.75,1.21.44,2.02.88,2.45,1.33.42.45.63,1,.63,1.68Z"/>
      <path class="cls-3" d="M416.38,96.04c.27-.38.67-.87,1.21-1.48l3.29-3.48h1.83l-4.12,4.33,4.41,5.84h-1.87l-3.59-4.81-1.16,1v3.8h-1.52v-14.44h1.52v7.65c0,.34-.02.87-.07,1.58h.07Z"/>
      <path class="cls-3" d="M424.7,88.33c0-.35.09-.61.26-.77.17-.16.39-.25.65-.25s.46.08.64.25c.18.17.27.42.27.77s-.09.61-.27.78c-.18.17-.39.25-.64.25-.26,0-.48-.08-.65-.25s-.26-.43-.26-.78ZM426.37,101.25h-1.54v-10.17h1.54v10.17Z"/>
      <path class="cls-3" d="M436.59,101.25v-6.58c0-.83-.19-1.45-.57-1.86-.38-.41-.97-.61-1.77-.61-1.06,0-1.84.29-2.34.86s-.74,1.52-.74,2.85v5.33h-1.54v-10.17h1.25l.25,1.39h.07c.32-.5.76-.89,1.33-1.16.57-.28,1.2-.41,1.9-.41,1.22,0,2.15.3,2.76.89.62.59.93,1.54.93,2.83v6.63h-1.54Z"/>
      <path class="cls-3" d="M445.59,101.43c-1.5,0-2.69-.46-3.56-1.37s-1.3-2.19-1.3-3.81.4-2.94,1.21-3.91c.81-.96,1.89-1.45,3.25-1.45,1.27,0,2.28.42,3.02,1.26.74.84,1.11,1.94,1.11,3.32v.97h-7c.03,1.19.33,2.1.91,2.72.57.62,1.38.93,2.42.93,1.09,0,2.18-.23,3.25-.69v1.37c-.54.23-1.06.4-1.54.5-.49.1-1.07.15-1.76.15ZM445.17,92.18c-.82,0-1.47.27-1.95.8-.49.53-.77,1.27-.86,2.21h5.32c0-.97-.22-1.71-.65-2.23s-1.05-.78-1.86-.78Z"/>
      <path class="cls-3" d="M456.59,90.9c.45,0,.86.04,1.21.11l-.21,1.43c-.42-.09-.79-.14-1.11-.14-.82,0-1.53.33-2.11,1-.58.67-.88,1.5-.88,2.5v5.46h-1.54v-10.17h1.27l.18,1.88h.07c.38-.66.83-1.17,1.36-1.53.53-.36,1.12-.54,1.75-.54Z"/>
    </g>
    <g>
      <g>
        <path class="cls-3" d="M270.97,65.65l-.15-23.11-10.15,18.83h-4.98s-10.15-18.17-10.15-18.17l.04,22.49-10.35.02-.08-43.6h9.22s13.95,25.13,13.95,25.13l13.53-25.18h9.22s.19,43.59.19,43.59l-10.29.02Z"/>
        <path class="cls-3" d="M311.97,46.83l.03,18.75-9.23.02v-4.36c-1.41,3.24-4.22,4.93-8.34,4.93-6.78.01-10.54-4.53-10.55-10.38,0-6.23,3.79-10.1,12.55-10.11h5.63c-.16-3.43-2.09-5.36-6.01-5.36-2.71,0-5.73,1.13-7.66,2.94l-3.35-8.03c3.23-2.56,8.02-3.94,12.46-3.94,9.18-.01,14.45,4.83,14.47,15.55ZM302.08,54.75v-2.93s-4.28,0-4.28,0c-3.18,0-4.33,1.38-4.32,3.43,0,1.99,1.36,3.42,3.71,3.42,2.19,0,4.12-1.25,4.9-3.93Z"/>
        <path class="cls-3" d="M314.01,62.64l2.96-8.1c2.61,1.93,6.42,3.1,9.86,3.1,3.34,0,4.43-.88,4.43-2.31,0-4.55-16.69.65-16.71-12.87-.01-6.35,4.88-11.22,13.75-11.23,3.96,0,8.35.98,11.17,2.85l-2.96,8.04c-2.82-1.86-5.64-2.48-8.14-2.48-3.34,0-4.54,1.13-4.53,2.37,0,4.67,16.64-.4,16.66,12.99.01,6.23-4.78,11.09-13.96,11.11-4.8,0-9.76-1.42-12.52-3.47Z"/>
        <path class="cls-3" d="M355.6,53.67l-2.92,3.56v8.28s-9.9.02-9.9.02l-.07-46.22,9.91-.02.04,24.23,10.1-11.79,11.73-.02-11.71,14.47,12.76,19.29-12,.02-7.95-11.82Z"/>
        <path class="cls-3" d="M376.29,21.68c0-3.55,2.39-6.29,6.04-6.3,3.65,0,6.05,2.54,6.06,6.09,0,3.74-2.39,6.48-6.04,6.49-3.65,0-6.05-2.73-6.06-6.28ZM377.4,31.7l9.91-.02.05,33.76-9.91.02-.05-33.76Z"/>
        <path class="cls-3" d="M424.22,46.08l.03,19.31-10.69.02-.03-17.38c0-4.86-1.93-6.91-5.02-6.91-3.43,0-6.07,2.38-6.07,7.98l.03,16.32-10.69.02-.06-33.76,10.19-.02v3.67c2.42-2.81,5.85-4.24,9.68-4.25,7.15-.01,12.62,4.53,12.63,14.99Z"/>
        <path class="cls-3" d="M456.5,51.44l-20.55.03c.84,3.42,3.29,5.41,6.95,5.41,2.76,0,4.59-.94,6.51-2.94l5.23,6.47c-2.71,3.62-6.67,5.49-12.04,5.5-10.07.02-16.6-7.39-16.61-17.48-.02-10.15,6.6-17.39,15.51-17.4,8.34-.01,15.14,6.33,15.15,17.48,0,.87-.1,1.99-.15,2.93ZM435.79,45.25l11.58-.02c-.53-3.55-2.72-5.79-5.8-5.78s-5.21,2.25-5.78,5.8Z"/>
        <path class="cls-3" d="M478.14,30.97l.02,10.65c-.89-.12-1.51-.18-2.24-.18-4.02,0-6.78,2.44-6.77,8.36l.03,15.51-9.91.02-.05-33.76,9.44-.02v4.05c2.04-3.06,5.32-4.62,9.49-4.62Z"/>
      </g>
      <g>
        <path class="cls-2" d="M111.32,27.43l-2.71,12.58h21.39l-1.39,6.5h-21.33l-3.41,15.83h-8.2l8.83-41.36h34.74l-1.39,6.44h-26.54Z"/>
        <path class="cls-2" d="M158.68,40.26l15.68,22.08h-9.15l-12.56-17.43-8.39,6.85-2.27,10.58h-8.14l8.83-41.36h8.14l-4.48,20.92,25.68-20.92h10.35l-23.6,19.2-.1.07Z"/>
        <polyline class="cls-2" points="76.03 28.55 80.51 46.75 68.56 46.75 64.5 52.77 82.02 52.77 84.35 62.34 92.49 62.34 81.52 20.99 73.38 20.99 44.67 62.34 53.44 62.34 59.81 52.77"/>
        <polygon class="cls-1" points="205.16 21.01 193.99 21.01 168.52 41.77 172.59 47.51 183.3 62.37 192.25 62.37 178.28 42.82 181.57 40.17 205.16 21.01"/>
      </g>
    </g>
    <circle class="cls-6" cx="324" cy="94.87" r="8.91"/>
    <path class="cls-3" d="M321.25,101.66c.12-1.19.26-3.46.43-6.81h-1.13c.02-.19.04-.6.08-1.22s.05-1.08.06-1.35h1.32c0-.25,0-.46,0-.64,0-.57.03-1.01.09-1.34.06-.32.17-.59.33-.82.16-.23.38-.43.67-.6.29-.18.61-.29.97-.36.36-.06.74-.09,1.13-.09.36,0,.75.02,1.16.07.42.05.92.15,1.5.3.02.98.06,1.8.12,2.45-.61-.22-1.16-.33-1.65-.33-.33,0-.59.08-.78.23s-.28.44-.28.85v.28h2.14c-.05.71-.1,1.57-.15,2.58h-1.93l-.31,6.81c-.74-.01-1.37-.02-1.89-.02s-1.15,0-1.86.02Z"/>
  </g>
</svg>