<?xml version="1.0" encoding="UTF-8"?>
<svg id="Lag_2" data-name="Lag 2" xmlns="http://www.w3.org/2000/svg" viewBox="0 0 206.8 73.06">
  <defs>
    <style>
      .cls-1 {
        fill: #f18a4d;
      }

      .cls-1, .cls-2 {
        stroke-width: 0px;
      }

      .cls-2 {
        fill: #fff;
      }

      .cls-3 {
        fill: #1e1e1c;
        stroke: #1e1e1c;
        stroke-miterlimit: 10;
      }
    </style>
  </defs>
  <g id="_1.1" data-name="1.1">
    <g>
      <path class="cls-3" d="M156.57,72.56H13.29c-9.88,0-16.02-10.73-11.01-19.25L26.52,12.12C30.76,4.92,38.49.5,46.84.5h146.91c9.99,0,15.28,10.41,11.13,19.46l-22.15,37.64c-7.27,9.13-15.41,14.96-26.16,14.96Z"/>
      <g>
        <path class="cls-2" d="M89.29,22.28l-2.71,12.58h21.39l-1.39,6.5h-21.33l-3.41,15.83h-8.2l8.83-41.36h34.74l-1.39,6.44h-26.54Z"/>
        <path class="cls-2" d="M136.66,35.11l15.68,22.08h-9.15l-12.56-17.43-8.39,6.85-2.27,10.58h-8.14l8.83-41.36h8.14l-4.48,20.92,25.68-20.92h10.35l-23.6,19.2-.1.07Z"/>
        <polyline class="cls-2" points="54 23.4 58.48 41.6 46.54 41.6 42.48 47.63 60 47.63 62.33 57.2 70.47 57.2 59.49 15.84 51.35 15.84 22.65 57.2 31.42 57.2 37.79 47.63"/>
        <polygon class="cls-1" points="183.14 15.87 171.97 15.87 146.5 36.63 150.57 42.36 161.28 57.22 170.23 57.22 156.26 37.67 159.55 35.03 183.14 15.87"/>
      </g>
    </g>
  </g>
</svg>