<?xml version="1.0" encoding="UTF-8"?>
<svg id="Lag_2" data-name="Lag 2" xmlns="http://www.w3.org/2000/svg" viewBox="0 0 507.31 81.91">
  <defs>
    <style>
      .cls-1, .cls-2, .cls-3 {
        stroke-width: 0px;
      }

      .cls-1, .cls-4, .cls-5 {
        fill: #f18a4d;
      }

      .cls-2, .cls-6 {
        fill: #fff;
      }

      .cls-4 {
        stroke-linecap: round;
        stroke-linejoin: bevel;
      }

      .cls-4, .cls-7 {
        stroke-width: .5px;
      }

      .cls-4, .cls-5 {
        stroke: #f18a4d;
      }

      .cls-7, .cls-5, .cls-6, .cls-8 {
        stroke-miterlimit: 10;
      }

      .cls-7, .cls-3, .cls-8 {
        fill: #1e1e1c;
      }

      .cls-7, .cls-8 {
        stroke: #1e1e1c;
      }

      .cls-6 {
        stroke: #fff;
      }
    </style>
  </defs>
  <g id="_2.2" data-name="2.2">
    <g>
      <path class="cls-6" d="M455.61,81.41H13.18c-8.39-.36-15.92-14.32-11.24-22.5L26.69,14.22c3.03-6.26,13.03-12.82,20.75-12.92h446.15c10.2,0,16.54,13.26,11.37,22.83l-22.62,40.64c-6.6,10.32-13.91,16.29-26.72,16.63Z"/>
      <g>
        <path class="cls-5" d="M451.66,77.44H18.49c-9.88,0-16.02-10.73-11.01-19.25L31.72,16.99c4.24-7.2,11.96-11.62,20.32-11.62h436.81c9.99,0,16.19,10.85,11.13,19.46l-22.15,37.64c-5.45,9.27-13.81,15.19-26.16,14.96Z"/>
        <path class="cls-8" d="M161.59,77.35H18.31c-9.88,0-16.02-10.73-11.01-19.25L31.54,16.91c4.24-7.2,11.96-11.62,20.32-11.62h146.91c9.99,0,15.28,10.41,11.13,19.46l-22.15,37.64c-7.27,9.13-15.41,14.96-26.16,14.96Z"/>
        <g>
          <path class="cls-3" d="M254.09,62.58l-.15-23.11-10.15,18.83h-4.98s-10.15-18.17-10.15-18.17l.04,22.49-10.35.02-.08-43.6h9.22s13.95,25.13,13.95,25.13l13.53-25.18h9.22s.19,43.59.19,43.59l-10.29.02Z"/>
          <path class="cls-3" d="M295.09,43.77l.03,18.75-9.23.02v-4.36c-1.41,3.24-4.22,4.93-8.34,4.93-6.78.01-10.54-4.53-10.55-10.38,0-6.23,3.79-10.1,12.55-10.11h5.63c-.16-3.43-2.09-5.36-6.01-5.36-2.71,0-5.73,1.13-7.66,2.94l-3.35-8.03c3.23-2.56,8.02-3.94,12.46-3.94,9.18-.01,14.45,4.83,14.47,15.55ZM285.19,51.69v-2.93s-4.28,0-4.28,0c-3.18,0-4.33,1.38-4.32,3.43,0,1.99,1.36,3.42,3.71,3.42,2.19,0,4.12-1.25,4.9-3.93Z"/>
          <path class="cls-3" d="M297.12,59.58l2.96-8.1c2.61,1.93,6.42,3.1,9.86,3.1,3.34,0,4.43-.88,4.43-2.31,0-4.55-16.69.65-16.71-12.87-.01-6.35,4.88-11.22,13.75-11.23,3.96,0,8.35.98,11.17,2.85l-2.96,8.04c-2.82-1.86-5.64-2.48-8.14-2.48-3.34,0-4.54,1.13-4.53,2.37,0,4.67,16.64-.4,16.66,12.99.01,6.23-4.78,11.09-13.96,11.11-4.8,0-9.76-1.42-12.52-3.47Z"/>
          <path class="cls-3" d="M338.71,50.6l-2.92,3.56v8.28s-9.9.02-9.9.02l-.07-46.22,9.91-.02.04,24.23,10.1-11.79,11.73-.02-11.71,14.47,12.76,19.29-12,.02-7.95-11.82Z"/>
          <path class="cls-3" d="M359.4,18.62c0-3.55,2.39-6.29,6.04-6.3,3.65,0,6.05,2.54,6.06,6.09,0,3.74-2.39,6.48-6.04,6.49-3.65,0-6.05-2.73-6.06-6.28ZM360.51,28.64l9.91-.02.05,33.76-9.91.02-.05-33.76Z"/>
          <path class="cls-3" d="M407.33,43.02l.03,19.31-10.69.02-.03-17.38c0-4.86-1.93-6.91-5.02-6.91-3.43,0-6.07,2.38-6.07,7.98l.03,16.32-10.69.02-.06-33.76,10.19-.02v3.67c2.42-2.81,5.85-4.24,9.68-4.25,7.15-.01,12.62,4.53,12.63,14.99Z"/>
          <path class="cls-3" d="M439.61,48.38l-20.55.03c.84,3.42,3.29,5.41,6.95,5.41,2.76,0,4.59-.94,6.51-2.94l5.23,6.47c-2.71,3.62-6.67,5.49-12.04,5.5-10.07.02-16.6-7.39-16.61-17.48-.02-10.15,6.6-17.39,15.51-17.4,8.34-.01,15.14,6.33,15.15,17.48,0,.87-.1,1.99-.15,2.93ZM418.9,42.18l11.58-.02c-.53-3.55-2.72-5.79-5.8-5.78s-5.21,2.25-5.78,5.8Z"/>
          <path class="cls-3" d="M461.26,27.91l.02,10.65c-.89-.12-1.51-.18-2.24-.18-4.02,0-6.78,2.44-6.77,8.36l.03,15.51-9.91.02-.05-33.76,9.44-.02v4.05c2.04-3.06,5.32-4.62,9.49-4.62Z"/>
        </g>
        <g>
          <path class="cls-2" d="M94.31,27.07l-2.71,12.58h21.39l-1.39,6.5h-21.33l-3.41,15.83h-8.2l8.83-41.36h34.74l-1.39,6.44h-26.54Z"/>
          <path class="cls-2" d="M141.68,39.9l15.68,22.08h-9.15l-12.56-17.43-8.39,6.85-2.27,10.58h-8.14l8.83-41.36h8.14l-4.48,20.92,25.68-20.92h10.35l-23.6,19.2-.1.07Z"/>
          <polyline class="cls-2" points="59.02 28.19 63.5 46.39 51.56 46.39 47.5 52.41 65.02 52.41 67.35 61.99 75.49 61.99 64.51 20.63 56.37 20.63 27.67 61.99 36.44 61.99 42.81 52.41"/>
          <polygon class="cls-1" points="188.16 20.66 176.99 20.66 151.52 41.42 155.59 47.15 166.3 62.01 175.25 62.01 161.28 42.46 164.57 39.82 188.16 20.66"/>
        </g>
      </g>
    </g>
    <g>
      <path class="cls-6" d="M455.63,80.61H13.2c-8.39-.36-15.92-14.32-11.24-22.5L26.71,13.42C29.74,7.15,39.74.6,47.46.5h446.15c10.2,0,16.54,13.26,11.37,22.83l-22.62,40.64c-6.6,10.32-13.91,16.29-26.72,16.63Z"/>
      <g>
        <g>
          <path class="cls-4" d="M488.98,4.52c9.99,0,16.19,10.85,11.13,19.46l-22.15,37.64c-5.45,9.27-13.81,15.19-26.16,14.96H162.26c10.49-.19,18.48-5.97,25.63-14.94l22.15-37.64c4.15-9.04-1.14-19.46-11.13-19.46l290.08-.02Z"/>
          <path class="cls-7" d="M161.49,76.58H18.21c-9.88,0-16.02-10.73-11.01-19.25L31.44,16.14c4.24-7.2,11.96-11.62,20.32-11.62h146.91c9.99,0,15.28,10.41,11.13,19.46l-22.15,37.64c-7.27,9.13-15.41,14.96-26.16,14.96Z"/>
        </g>
        <g>
          <g>
            <path class="cls-3" d="M254.12,61.52l-.15-23.11-10.15,18.83h-4.98s-10.15-18.17-10.15-18.17l.04,22.49-10.35.02-.08-43.6h9.22s13.95,25.13,13.95,25.13l13.53-25.18h9.22s.19,43.59.19,43.59l-10.29.02Z"/>
            <path class="cls-3" d="M295.12,42.7l.03,18.75-9.23.02v-4.36c-1.41,3.24-4.22,4.93-8.34,4.93-6.78.01-10.54-4.53-10.55-10.38,0-6.23,3.79-10.1,12.55-10.11h5.63c-.16-3.43-2.09-5.36-6.01-5.36-2.71,0-5.73,1.13-7.66,2.94l-3.35-8.03c3.23-2.56,8.02-3.94,12.46-3.94,9.18-.01,14.45,4.83,14.47,15.55ZM285.22,50.63v-2.93s-4.28,0-4.28,0c-3.18,0-4.33,1.38-4.32,3.43,0,1.99,1.36,3.42,3.71,3.42,2.19,0,4.12-1.25,4.9-3.93Z"/>
            <path class="cls-3" d="M297.16,58.52l2.96-8.1c2.61,1.93,6.42,3.1,9.86,3.1,3.34,0,4.43-.88,4.43-2.31,0-4.55-16.69.65-16.71-12.87-.01-6.35,4.88-11.22,13.75-11.23,3.96,0,8.35.98,11.17,2.85l-2.96,8.04c-2.82-1.86-5.64-2.48-8.14-2.48-3.34,0-4.54,1.13-4.53,2.37,0,4.67,16.64-.4,16.66,12.99.01,6.23-4.78,11.09-13.96,11.11-4.8,0-9.76-1.42-12.52-3.47Z"/>
            <path class="cls-3" d="M338.74,49.54l-2.92,3.56v8.28s-9.9.02-9.9.02l-.07-46.22,9.91-.02.04,24.23,10.1-11.79,11.73-.02-11.71,14.47,12.76,19.29-12,.02-7.95-11.82Z"/>
            <path class="cls-3" d="M359.43,17.55c0-3.55,2.39-6.29,6.04-6.3,3.65,0,6.05,2.54,6.06,6.09,0,3.74-2.39,6.48-6.04,6.49-3.65,0-6.05-2.73-6.06-6.28ZM360.54,27.58l9.91-.02.05,33.76-9.91.02-.05-33.76Z"/>
            <path class="cls-3" d="M407.37,41.95l.03,19.31-10.69.02-.03-17.38c0-4.86-1.93-6.91-5.02-6.91-3.43,0-6.07,2.38-6.07,7.98l.03,16.32-10.69.02-.06-33.76,10.19-.02v3.67c2.42-2.81,5.85-4.24,9.68-4.25,7.15-.01,12.62,4.53,12.63,14.99Z"/>
            <path class="cls-3" d="M439.65,47.32l-20.55.03c.84,3.42,3.29,5.41,6.95,5.41,2.76,0,4.59-.94,6.51-2.94l5.23,6.47c-2.71,3.62-6.67,5.49-12.04,5.5-10.07.02-16.6-7.39-16.61-17.48-.02-10.15,6.6-17.39,15.51-17.4,8.34-.01,15.14,6.33,15.15,17.48,0,.87-.1,1.99-.15,2.93ZM418.93,41.12l11.58-.02c-.53-3.55-2.72-5.79-5.8-5.78s-5.21,2.25-5.78,5.8Z"/>
            <path class="cls-3" d="M461.29,26.85l.02,10.65c-.89-.12-1.51-.18-2.24-.18-4.02,0-6.78,2.44-6.77,8.36l.03,15.51-9.91.02-.05-33.76,9.44-.02v4.05c2.04-3.06,5.32-4.62,9.49-4.62Z"/>
          </g>
          <g>
            <path class="cls-2" d="M94.35,26.3l-2.71,12.58h21.39l-1.39,6.5h-21.33l-3.41,15.83h-8.2l8.83-41.36h34.74l-1.39,6.44h-26.54Z"/>
            <path class="cls-2" d="M141.71,39.13l15.68,22.08h-9.15l-12.56-17.43-8.39,6.85-2.27,10.58h-8.14l8.83-41.36h8.14l-4.48,20.92,25.68-20.92h10.35l-23.6,19.2-.1.07Z"/>
            <polyline class="cls-2" points="59.05 27.42 63.53 45.62 51.59 45.62 47.53 51.65 65.05 51.65 67.38 61.22 75.52 61.22 64.54 19.86 56.41 19.86 27.7 61.22 36.47 61.22 42.84 51.65"/>
            <polygon class="cls-1" points="188.19 19.89 177.02 19.89 151.55 40.65 155.62 46.38 166.33 61.25 175.28 61.25 161.31 41.7 164.6 39.05 188.19 19.89"/>
          </g>
        </g>
      </g>
    </g>
  </g>
</svg>