<?xml version="1.0" encoding="UTF-8"?>
<svg id="Lag_2" data-name="Lag 2" xmlns="http://www.w3.org/2000/svg" viewBox="0 0 214.76 79.88">
  <defs>
    <style>
      .cls-1 {
        fill: #f18a4d;
      }

      .cls-1, .cls-2 {
        stroke-width: 0px;
      }

      .cls-2, .cls-3 {
        fill: #fff;
      }

      .cls-3 {
        stroke: #fff;
      }

      .cls-3, .cls-4 {
        stroke-miterlimit: 10;
      }

      .cls-4 {
        fill: #1e1e1c;
        stroke: #1e1e1c;
      }
    </style>
  </defs>
  <g id="_2.1" data-name="2.1">
    <g>
      <path class="cls-3" d="M162.51,79.38H14.71c-10.33,0-17.72-13.7-12.48-23.02L26.59,13.22C31.01,5.34,39.09.5,47.82.5h151.61c10.44,0,17.92,13.45,13.58,23.34l-23.15,39.16c-7.6,9.99-16.1,16.38-27.35,16.38Z"/>
      <g>
        <path class="cls-4" d="M160.55,75.97H17.27c-9.88,0-16.02-10.73-11.01-19.25L30.5,15.53c4.24-7.2,11.96-11.62,20.32-11.62h146.91c9.99,0,15.28,10.41,11.13,19.46l-22.15,37.64c-7.27,9.13-15.41,14.96-26.16,14.96Z"/>
        <g>
          <path class="cls-2" d="M93.27,25.69l-2.71,12.58h21.39l-1.39,6.5h-21.33l-3.41,15.83h-8.2l8.83-41.36h34.74l-1.39,6.44h-26.54Z"/>
          <path class="cls-2" d="M140.64,38.52l15.68,22.08h-9.15l-12.56-17.43-8.39,6.85-2.27,10.58h-8.14l8.83-41.36h8.14l-4.48,20.92,25.68-20.92h10.35l-23.6,19.2-.1.07Z"/>
          <polyline class="cls-2" points="57.98 26.81 62.46 45.01 50.52 45.01 46.46 51.03 63.98 51.03 66.31 60.61 74.45 60.61 63.47 19.25 55.33 19.25 26.63 60.61 35.4 60.61 41.77 51.03"/>
          <polygon class="cls-1" points="187.12 19.28 175.95 19.28 150.48 40.04 154.55 45.77 165.26 60.63 174.21 60.63 160.24 41.08 163.53 38.44 187.12 19.28"/>
        </g>
      </g>
    </g>
  </g>
</svg>